<svg viewBox="0 0 36 36" xmlns="http://www.w3.org/2000/svg" xmlns:xlink="http://www.w3.org/1999/xlink" width="36.000000" height="36.000000" fill="none" customFrame="#000000">
	<rect id="Symbol 4" width="36.000000" height="36.000000" x="0.000000" y="0.000000" fill="rgb(255,255,255)" fill-opacity="0" />
	<path id="икнопка профиля" d="M36 0L36 36L5 36C2.23858 36 0 33.7614 0 31L0 5C0 2.23858 2.23858 0 5 0L36 0Z" fill="rgb(81,81,81)" fill-rule="evenodd" />
	<path id="Primary fill" d="M21.5002 21L13.4142 21L14.7073 22.293C15.0982 22.684 15.0982 23.316 14.7073 23.707C14.3162 24.098 13.6842 24.098 13.2933 23.707L10.2933 20.707C9.90225 20.316 9.90225 19.684 10.2933 19.293L13.2933 16.293C13.4882 16.098 13.7442 16 14.0002 16C14.2563 16 14.5122 16.098 14.7073 16.293C15.0982 16.684 15.0982 17.316 14.7073 17.707L13.4142 19L21.5002 19C22.8792 19 24.0002 17.879 24.0002 16.5C24.0002 15.121 22.8792 14 21.5002 14L11.0002 14C10.4473 14 10.0002 13.553 10.0002 13C10.0002 12.447 10.4473 12 11.0002 12L21.5002 12C23.9813 12 26.0002 14.019 26.0002 16.5C26.0002 18.981 23.9813 21 21.5002 21Z" fill="rgb(231,231,231)" fill-rule="evenodd" />
</svg>
