<svg viewBox="0 0 36 36" xmlns="http://www.w3.org/2000/svg" xmlns:xlink="http://www.w3.org/1999/xlink" width="36.000000" height="36.000000" fill="none" customFrame="#000000">
	<rect id="Symbol 6" width="36.000000" height="36.000000" x="0.000000" y="0.000000" fill="rgb(255,255,255)" fill-opacity="0" />
	<path id="икнопка профиля" d="M31 0C33.7614 0 36 2.23858 36 5L36 31C36 33.7614 33.7614 36 31 36L0 36L0 0L31 0Z" fill="rgb(81,81,81)" fill-rule="evenodd" />
	<path id="矢量 93" d="M12 25C12 26.1 12.9 27 14 27L22 27C23.1 27 24 26.1 24 25L24 13L12 13L12 25ZM25 10L21.5 10L20.5 9L15.5 9L14.5 10L11 10L11 12L25 12L25 10Z" fill="rgb(255,80,80)" fill-rule="evenodd" />
</svg>
