<svg viewBox="0 0 36 36" xmlns="http://www.w3.org/2000/svg" xmlns:xlink="http://www.w3.org/1999/xlink" width="36.000000" height="36.000000" fill="none" customFrame="#000000">
	<rect id="Symbol 1" width="36.000000" height="36.000000" x="0.000000" y="0.000000" fill="rgb(255,255,255)" fill-opacity="0" />
	<path id="икнопка профиля" d="M31 0C33.7614 0 36 2.23858 36 5L36 31C36 33.7614 33.7614 36 31 36L0 36L0 0L31 0Z" fill="rgb(81,81,81)" fill-rule="evenodd" />
	<path id="矢量 23" d="M9 23.2525L9 27.0025L12.75 27.0025L23.81 15.9425L20.06 12.1925L9 23.2525ZM26.71 13.0425C27.1 12.6525 27.1 12.0225 26.71 11.6325L24.37 9.2925C23.98 8.9025 23.35 8.9025 22.96 9.2925L21.13 11.1225L24.88 14.8725L26.71 13.0425Z" fill="rgb(188,255,184)" fill-rule="evenodd" />
</svg>
