<svg viewBox="0 0 44 44" xmlns="http://www.w3.org/2000/svg" xmlns:xlink="http://www.w3.org/1999/xlink" width="44.000000" height="44.000000" fill="none" customFrame="#000000">
	<defs>
		<g id="pixso_custom_effect_0">
			<effect x="0.000000" y="0.000000" visibility="visible" fill="rgb(0,0,0)" fill-opacity="0.25" effectType="dropShadow" stdDeviation="4" radius="0" />
		</g>
		<filter id="filter_0" width="44.000000" height="44.000000" x="0.000000" y="0.000000" filterUnits="userSpaceOnUse" customEffect="url(#pixso_custom_effect_0)" color-interpolation-filters="sRGB">
			<feFlood flood-opacity="0" result="BackgroundImageFix" />
			<feOffset dx="0.000000" dy="0.000000" in="SourceAlpha" />
			<feGaussianBlur stdDeviation="1.33333337" />
			<feColorMatrix type="matrix" values="0 0 0 0 0 0 0 0 0 0 0 0 0 0 0 0 0 0 0.25 0 " />
			<feBlend result="effect_dropShadow_1" in2="BackgroundImageFix" mode="normal" />
			<feBlend result="shape" in="SourceGraphic" in2="effect_dropShadow_1" mode="normal" />
		</filter>
	</defs>
	<g id="Сохр на комп">
		<g filter="url(#filter_0)">
			<rect id="икнопка профиля" width="36.000000" height="36.000000" x="4.000000" y="4.000000" rx="5.000000" fill="rgb(255,255,255)" />
		</g>
		<path id="иконка" d="M29 22L29 29L15 29L15 22L13 22L13 29C13 30.1 13.9 31 15 31L29 31C30.1 31 31 30.1 31 29L31 22L29 22ZM23 22.67L25.59 20.09L27 21.5L22 26.5L17 21.5L18.41 20.09L21 22.67L21 13L23 13L23 22.67Z" fill="rgb(81,81,81)" fill-rule="evenodd" />
	</g>
</svg>
