<svg viewBox="0 0 36 36" xmlns="http://www.w3.org/2000/svg" xmlns:xlink="http://www.w3.org/1999/xlink" width="36.000000" height="36.000000" fill="none" customFrame="#000000">
	<rect id="Symbol 3" width="36.000000" height="36.000000" x="0.000000" y="0.000000" fill="rgb(255,255,255)" fill-opacity="0" />
	<path id="икнопка профиля" d="M31 0C33.7614 0 36 2.23858 36 5L36 31C36 33.7614 33.7614 36 31 36L0 36L0 0L31 0Z" fill="rgb(81,81,81)" fill-rule="evenodd" />
	<path id="юзер" d="M18.414 11L27 11C27.2652 11 27.5196 11.1054 27.7071 11.2929C27.8946 11.4804 28 11.7348 28 12L28 26C28 26.2652 27.8946 26.5196 27.7071 26.7071C27.5196 26.8946 27.2652 27 27 27L9 27C8.73478 27 8.48043 26.8946 8.29289 26.7071C8.10536 26.5196 8 26.2652 8 26L8 10C8 9.73478 8.10536 9.48043 8.29289 9.29289C8.48043 9.10536 8.73478 9 9 9L16.414 9L18.414 11ZM18 19C18.663 19 19.2989 18.7366 19.7678 18.2678C20.2366 17.7989 20.5 17.163 20.5 16.5C20.5 15.837 20.2366 15.2011 19.7678 14.7322C19.2989 14.2634 18.663 14 18 14C17.337 14 16.7011 14.2634 16.2322 14.7322C15.7634 15.2011 15.5 15.837 15.5 16.5C15.5 17.163 15.7634 17.7989 16.2322 18.2678C16.7011 18.7366 17.337 19 18 19ZM14 24L22 24C22 22.9391 21.5786 21.9217 20.8284 21.1716C20.0783 20.4214 19.0609 20 18 20C16.9391 20 15.9217 20.4214 15.1716 21.1716C14.4214 21.9217 14 22.9391 14 24L14 24Z" fill="rgb(231,231,231)" fill-rule="evenodd" />
</svg>
