<svg viewBox="0 0 36 36" xmlns="http://www.w3.org/2000/svg" xmlns:xlink="http://www.w3.org/1999/xlink" width="36.000000" height="36.000000" fill="none" customFrame="#000000">
	<rect id="Symbol 7" width="36.000000" height="36.000000" x="0.000000" y="0.000000" fill="rgb(255,255,255)" fill-opacity="0" />
	<path id="икнопка профиля" d="M31 0C33.7614 0 36 2.23858 36 5L36 31C36 33.7614 33.7614 36 31 36L0 36L0 0L31 0Z" fill="rgb(81,81,81)" fill-rule="evenodd" />
	<path id="矢量 63" d="M23 9L11 9C9.89 9 9 9.9 9 11L9 25C9 26.1 9.89 27 11 27L25 27C26.1 27 27 26.1 27 25L27 13L23 9ZM18 25C16.34 25 15 23.66 15 22C15 20.34 16.34 19 18 19C19.66 19 21 20.34 21 22C21 23.66 19.66 25 18 25ZM21 15L11 15L11 11L21 11L21 15Z" fill="rgb(188,255,184)" fill-rule="evenodd" />
</svg>
