<svg viewBox="0 0 36 36" xmlns="http://www.w3.org/2000/svg" xmlns:xlink="http://www.w3.org/1999/xlink" width="36.000000" height="36.000000" fill="none" customFrame="#000000">
	<rect id="Symbol 2" width="36.000000" height="36.000000" x="0.000000" y="0.000000" fill="rgb(255,255,255)" fill-opacity="0" />
	<path id="поиск кнопка" d="M31 0C33.7614 0 36 2.23858 36 5L36 31C36 33.7614 33.7614 36 31 36L0 36L0 0L31 0Z" fill="rgb(81,81,81)" fill-rule="evenodd" />
	<path id="поиск иконка" d="M22.5 20L21.71 20L21.43 19.73C22.41 18.59 23 17.11 23 15.5C23 11.91 20.09 9 16.5 9C12.91 9 10 11.91 10 15.5C10 19.09 12.91 22 16.5 22C18.11 22 19.59 21.41 20.73 20.43L21 20.71L21 21.5L26 26.49L27.49 25L22.5 20ZM16.5 20C14.01 20 12 17.99 12 15.5C12 13.01 14.01 11 16.5 11C18.99 11 21 13.01 21 15.5C21 17.99 18.99 20 16.5 20Z" fill="rgb(231,231,231)" fill-rule="evenodd" />
</svg>
